<svg viewBox="0 0 764 238" xmlns="http://www.w3.org/2000/svg" height="238" xmlns:xlink="http://www.w3.org/1999/xlink" width="764"><defs/><g transform="translate(-195.00,-541.00)"><g transform="translate(340.000000,661.000000)" id="shape1"><path stroke-width="1" stroke="#191919" d="M.0,.0L30.5,.0" fill="none"/><path stroke-width="1" stroke="#191919" d="M30.5,-3.0L36.5,.0L30.5,3.0L30.5,-3.0" fill="#191919" stroke-linecap="round"/></g><g transform="translate(376.533350,647.000000)" id="group2"><path stroke-width="1" id="shape3" d="M.0,14.0C.0,6.3,6.3,.0,14.0,.0C21.7,.0,28.0,6.3,28.0,14.0C28.0,21.7,21.7,28.0,14.0,28.0C6.3,28.0,.0,21.7,.0,14.0z" stroke="#0d0d0d" fill-rule="nonzero" fill="#ffffff"/><path transform="translate(5.166000,5.166000)" stroke-width="1" id="shape4" stroke="#000000" d="M8.8,.0L8.8,17.7M.0,8.8L17.7,8.8" fill="none"/></g><g transform="translate(433.533350,641.000000)" id="group5"><g id="shape6"><path stroke-width="1" d="M35.5,38.0L35.5,.0L.0,.0L.0,38.0L35.5,38.0z" stroke="#101843" fill-rule="nonzero" fill="#ffffff"/><text xml:space="preserve" style="fill:#191919;font-family:Times New Roman;font-size:14.00pt;font-weight:bold"><tspan y="24.4" x="13.8">z</tspan></text></g><g transform="translate(7.133400,0.000000)" id="shape7"><text xml:space="preserve" style="fill:#191919;font-family:Times New Roman;font-size:10.00pt"><tspan y="17.7" x="16.7">-1</tspan></text></g></g><g transform="translate(755.533350,646.000000)" id="group8"><path stroke-width="1" id="shape9" d="M.0,14.0C.0,6.3,6.3,.0,14.0,.0C21.7,.0,28.0,6.3,28.0,14.0C28.0,21.7,21.7,28.0,14.0,28.0C6.3,28.0,.0,21.7,.0,14.0z" stroke="#0d0d0d" fill-rule="nonzero" fill="#ffffff"/><path transform="translate(5.166000,5.166000)" stroke-width="1" id="shape10" stroke="#000000" d="M8.8,.0L8.8,17.7M.0,8.8L17.7,8.8" fill="none"/></g><g transform="translate(390.533350,708.000000)" id="shape11"><path stroke-width="1" stroke="#191919" d="M.0,.0L.0,-27.0" fill="none"/><path stroke-width="1" stroke="#191919" d="M-3.0,-27.0L.0,-33.0L3.0,-27.0L-3.0,-27.0" fill="#191919" stroke-linecap="round"/></g><g transform="translate(535.000000,566.500000)" id="shape12"><text xml:space="preserve" style="fill:#191919;font-family:Times New Roman;font-size:10.00pt"><tspan y="27.7" x="4.0">phase_acc(N-1)</tspan></text></g><g transform="translate(385.413000,680.000000)" id="shape13"><text xml:space="preserve" style="fill:#191919;font-family:Times New Roman;font-size:10.00pt"><tspan y="17.7" x="15.1">phase_acc(N-1 ... 0)</tspan></text></g><g transform="translate(200.000000,630.000000)" id="shape14"><text xml:space="preserve" style="fill:#191919;font-family:Times New Roman;font-size:12.00pt"><tspan y="32.3" x="11.7">FTW_IN(N-1 ... 0)</tspan></text></g><path transform="matrix(-1.000000,0.000000,0.000000,1.000000,769.533350,703.651580)" stroke-width="1" id="shape15" stroke="#303030" d="M.0,.0L.0,50.3L429.5,50.3" fill="none"/><g transform="translate(194.999800,723.000000)" id="shape16"><text xml:space="preserve" style="fill:#191919;font-family:Times New Roman;font-size:12.00pt"><tspan y="32.3" x="9.6">POW_IN(M-1 ... 0)</tspan></text></g><g transform="translate(769.533350,716.000000)" id="shape17"><path stroke-width="1" stroke="#191919" d="M.0,.0L.0,-36.0" fill="none"/><path stroke-width="1" stroke="#191919" d="M-3.0,-36.0L.0,-42.0L3.0,-36.0L-3.0,-36.0" fill="#191919" stroke-linecap="round"/></g><path transform="translate(391.533350,708.000000)" stroke-width="1" id="shape18" stroke="#303030" d="M-0.0,-0.0L37.0,-0.0" fill="none"/><path transform="matrix(-1.000000,0.000000,0.000000,1.000000,513.100668,660.000000)" stroke-width="1" id="shape19" stroke="#303030" d="M.0,.0L.0,48.0L91.6,48.0" fill="none"/><path transform="matrix(-0.470588,0.882353,-0.882353,-0.470588,584.533350,654.000000)" stroke-width="1" id="shape20" stroke="#303030" d="M.0,-0.0L17.0,-0.0" fill="none"/><g transform="translate(469.000050,660.000000)" id="shape21"><path stroke-width="1" stroke="#191919" d="M.0,.0L280.5,.0" fill="none"/><path stroke-width="1" stroke="#191919" d="M280.5,-3.0L286.5,.0L280.5,3.0L280.5,-3.0" fill="#191919" stroke-linecap="round"/></g><path transform="matrix(-0.470588,0.882353,-0.882353,-0.470588,449.533350,701.000000)" stroke-width="1" id="shape22" stroke="#303030" d="M.0,-0.0L17.0,-0.0" fill="none"/><g transform="translate(652.988350,621.000000)" id="shape23"><text xml:space="preserve" style="fill:#191919;font-family:Times New Roman;font-size:12.00pt"><tspan y="32.3" x="7.6">PHASE_OUT</tspan></text></g><path transform="translate(363.955000,574.000000)" stroke-width="2" id="shape24" stroke="#101843" d="M286.0,159.0L286.0,.0L.0,.0L.0,159.0L286.0,159.0z" stroke-dasharray="11,5" fill="none"/><g transform="translate(441.380923,541.000000)" id="shape25"><text xml:space="preserve" style="fill:#191919;font-family:Times New Roman;font-size:14.00pt;font-weight:bold"><tspan y="24.9" x="39.9">NCO</tspan></text></g><path transform="matrix(-0.470588,0.882353,-0.882353,-0.470588,355.533350,747.000000)" stroke-width="1" id="shape26" stroke="#303030" d="M.0,-0.0L17.0,-0.0" fill="none"/><path transform="matrix(-0.470588,0.882353,-0.882353,-0.470588,355.533350,654.000000)" stroke-width="1" id="shape27" stroke="#303030" d="M.0,-0.0L17.0,-0.0" fill="none"/><g transform="translate(493.378024,631.000300)" id="shape28"><text xml:space="preserve" style="fill:#191919;font-family:Times New Roman;font-size:10.00pt"><tspan y="17.7" x="23.3">phase_acc(N-1 ... N-M)</tspan></text></g><g transform="translate(783.533350,660.000000)" id="shape29"><path stroke-width="1" stroke="#191919" d="M.0,.0L148.0,.0" fill="none"/><path stroke-width="1" stroke="#191919" d="M148.0,-3.0L154.0,.0L148.0,3.0L148.0,-3.0" fill="#191919" stroke-linecap="round"/></g><g transform="translate(774.000000,620.221400)" id="shape30"><text xml:space="preserve" style="fill:#191919;font-family:Times New Roman;font-size:10.00pt"><tspan y="27.6" x="17.9">phase_with_offset(M-1 ... 0)</tspan></text></g><path transform="matrix(-0.470588,0.882353,-0.882353,-0.470588,837.000000,654.000000)" stroke-width="1" id="shape31" stroke="#303030" d="M.0,-0.0L17.0,-0.0" fill="none"/><g transform="translate(679.976700,578.221400)" id="shape32"><text xml:space="preserve" style="fill:#191919;font-family:Times New Roman;font-size:12.00pt"><tspan y="32.2" x="8.5">OUT_SQ</tspan></text></g><path transform="matrix(-0.470588,0.882353,-0.882353,-0.470588,585.000000,599.000000)" stroke-width="1" id="shape33" stroke="#303030" d="M.0,-0.0L17.0,-0.0" fill="none"/><g transform="translate(513.255118,660.000000)" id="shape34"><path stroke-width="1" stroke="#191919" d="M.0,.0L.0,-55.0L160.7,-55.0" fill="none"/><path stroke-width="1" stroke="#191919" d="M160.7,-58.0L166.7,-55.0L160.7,-52.0L160.7,-58.0" fill="#191919" stroke-linecap="round"/></g><g transform="translate(404.533350,661.000000)" id="shape35"><path stroke-width="1" stroke="#191919" d="M.0,.0L23.0,.0" fill="none"/><path stroke-width="1" stroke="#191919" d="M23.0,-3.0L29.0,.0L23.0,3.0L23.0,-3.0" fill="#191919" stroke-linecap="round"/></g></g></svg>