<svg viewBox="0 0 981 273" xmlns="http://www.w3.org/2000/svg" height="273" xmlns:xlink="http://www.w3.org/1999/xlink" width="981"><defs/><g transform="translate(-48.73,-857.50)"><path transform="matrix(-0.470588,0.882353,-0.882353,-0.470588,204.000000,939.000000)" stroke-width="1" id="shape1" stroke="#303030" d="M.0,-0.0L17.0,-0.0" fill="none"/><g transform="translate(179.934639,945.000445)" id="shape2"><path stroke-width="1" stroke="#191919" d="M.0,.0L303.1,-0.0" fill="none"/><path stroke-width="1" stroke="#191919" d="M303.1,-3.0L309.1,-0.0L303.1,3.0L303.1,-3.0" fill="#191919" stroke-linecap="round"/></g><g transform="translate(327.000000,966.443000)" id="group3"><path stroke-width="1" id="shape4" d="M.0,14.0C.0,6.3,6.3,.0,14.0,.0C21.7,.0,28.0,6.3,28.0,14.0C28.0,21.7,21.7,28.0,14.0,28.0C6.3,28.0,.0,21.7,.0,14.0z" stroke="#0d0d0d" fill-rule="nonzero" fill="#ffffff"/><path transform="translate(5.166000,5.166000)" stroke-width="1" id="shape5" stroke="#000000" d="M8.8,.0L8.8,17.7M.0,8.8L17.7,8.8" fill="none"/></g><g transform="translate(482.000000,927.999600)" id="group6"><path transform="matrix(0.000000,1.000000,-1.000000,0.000000,35.000000,0.000000)" stroke-width="1" id="shape7" d="M16.0,.0L50.4,.0L66.4,28.0L.0,28.0L16.0,.0z" stroke="#101843" fill-rule="nonzero" fill="#ffffff"/><g transform="translate(0.000000,9.360930)" id="shape8"><text xml:space="preserve" style="fill:#191919;font-family:Times New Roman;font-size:7.50pt"><tspan y="11.7" x="11.4">1</tspan></text></g><g transform="translate(0.000000,37.000000)" id="shape9"><text xml:space="preserve" style="fill:#191919;font-family:Times New Roman;font-size:7.50pt"><tspan y="17.2" x="11.4">0</tspan></text></g></g><g transform="translate(287.538900,897.180730)" id="shape10"><text xml:space="preserve" style="fill:#191919;font-family:Times New Roman;font-size:10.00pt"><tspan y="23.7" x="38.0">index_in &lt;= ADDR(M-3 ... 0)</tspan></text></g><path transform="matrix(-0.470588,0.882353,-0.882353,-0.470588,343.000000,939.000000)" stroke-width="1" id="shape11" stroke="#303030" d="M.0,-0.0L17.0,-0.0" fill="none"/><path transform="translate(276.673324,945.000406)" stroke-width="1" id="shape12" stroke="#303030" d="M.0,.0L.0,35.4L50.3,35.4" fill="none"/><g transform="translate(313.078250,956.443000)" id="shape13"><text xml:space="preserve" style="fill:#191919;font-family:Times New Roman;font-size:16.00pt;font-weight:bold"><tspan y="22.7" x="6.0">-</tspan></text></g><g transform="translate(283.000000,980.443000)" id="shape14"><path stroke-width="1" stroke="#191919" d="M.0,.0L38.0,.0" fill="none"/><path stroke-width="1" stroke="#191919" d="M38.0,-3.0L44.0,.0L38.0,3.0L38.0,-3.0" fill="#191919" stroke-linecap="round"/></g><g transform="translate(314.952000,922.000000)" id="shape15"><text xml:space="preserve" style="fill:#191919;font-family:Times New Roman;font-size:10.00pt"><tspan y="15.7" x="12.2">index_in</tspan></text></g><g transform="translate(267.461000,954.000000)" id="shape16"><text xml:space="preserve" style="fill:#191919;font-family:Times New Roman;font-size:10.00pt"><tspan y="15.7" x="12.2">index_in</tspan></text></g><path transform="matrix(-0.470588,0.882353,-0.882353,-0.470588,300.000000,974.000000)" stroke-width="1" id="shape17" stroke="#303030" d="M.0,-0.0L17.0,-0.0" fill="none"/><g transform="translate(307.078600,1004.000000)" id="group18"><path transform="translate(13.879272,6.739979)" stroke-width="1" id="shape19" d="M46.8,35.9L46.8,.0L.0,.0L.0,35.9L46.8,35.9z" stroke="#101843" fill-rule="nonzero" fill="#ffffff"/><g id="group20"><g transform="translate(11.766819,0.000000)" id="shape21"><text xml:space="preserve" style="fill:#191919;font-family:Times New Roman;font-size:10.00pt"><tspan y="19.4" x="14.7">M-2</tspan></text></g><g transform="translate(25.687805,11.233319)" id="shape22"><text xml:space="preserve" style="fill:#191919;font-family:Times New Roman;font-size:12.00pt;font-weight:bold"><tspan y="20.1" x="19.1">-1</tspan></text></g><g transform="translate(-0.000038,11.233319)" id="shape23"><text xml:space="preserve" style="fill:#191919;font-family:Times New Roman;font-size:12.00pt;font-weight:bold"><tspan y="20.1" x="21.7">2</tspan></text></g></g></g><g transform="translate(340.545000,1009.000000)" id="shape24"><path stroke-width="1" stroke="#191919" d="M.0,.0L.0,-9.0" fill="none"/><path stroke-width="1" stroke="#191919" d="M-3.0,-9.0L.0,-15.0L3.0,-9.0L-3.0,-9.0" fill="#191919" stroke-linecap="round"/></g><g transform="translate(355.000000,980.443000)" id="shape25"><path stroke-width="1" stroke="#191919" d="M.0,.0L128.0,-0.0" fill="none"/><path stroke-width="1" stroke="#191919" d="M128.0,-3.0L134.0,-0.0L128.0,3.0L128.0,-3.0" fill="#191919" stroke-linecap="round"/></g><g transform="translate(349.097000,954.443000)" id="shape26"><text xml:space="preserve" style="fill:#191919;font-family:Times New Roman;font-size:10.00pt"><tspan y="17.2" x="8.7">index_mirror(M-3 ... 0)</tspan></text></g><path transform="matrix(-0.470588,0.882353,-0.882353,-0.470588,417.000000,974.000000)" stroke-width="1" id="shape27" stroke="#303030" d="M.0,-0.0L17.0,-0.0" fill="none"/><path transform="translate(249.997944,945.000417)" stroke-width="1" id="shape28" stroke="#303030" d="M.0,.0L.0,129.6L253.0,129.6L253.0,41.4" fill="none"/><g transform="translate(503.000000,1013.443000)" id="shape29"><path stroke-width="1" stroke="#191919" d="M.0,.0L.0,-21.0" fill="none"/><path stroke-width="1" stroke="#191919" d="M-3.0,-21.0L.0,-27.0L3.0,-21.0L-3.0,-21.0" fill="#191919" stroke-linecap="round"/></g><g transform="translate(324.958714,1049.000000)" id="shape30"><text xml:space="preserve" style="fill:#191919;font-family:Times New Roman;font-size:10.00pt"><tspan y="15.7" x="12.4">ADDR(M-2)</tspan></text></g><path transform="matrix(-0.470588,0.882353,-0.882353,-0.470588,369.000000,1068.000000)" stroke-width="1" id="shape31" stroke="#303030" d="M.0,-0.0L17.0,-0.0" fill="none"/><g transform="translate(607.000000,934.221000)" id="shape32"><path stroke-width="1" d="M57.0,54.0L57.0,.0L.0,.0L.0,54.0L57.0,54.0z" stroke="#101843" fill-rule="nonzero" fill="#ffffff"/><text xml:space="preserve" style="fill:#191919;font-family:Times New Roman;font-size:10.00pt;font-weight:bold"><tspan y="15.6" x="19.8">1/4</tspan><tspan y="31.3" x="16.3">Sine</tspan><tspan y="47.0" x="15.0">LUT</tspan></text></g><g transform="translate(517.000000,961.221000)" id="shape33"><path stroke-width="1" stroke="#191919" d="M.0,.0L84.0,.0" fill="none"/><path stroke-width="1" stroke="#191919" d="M84.0,-3.0L90.0,.0L84.0,3.0L84.0,-3.0" fill="#191919" stroke-linecap="round"/></g><g transform="translate(779.000000,943.999600)" id="group34"><path transform="matrix(0.000000,1.000000,-1.000000,0.000000,35.000000,0.000000)" stroke-width="1" id="shape35" d="M16.0,.0L50.4,.0L66.4,28.0L.0,28.0L16.0,.0z" stroke="#101843" fill-rule="nonzero" fill="#ffffff"/><g transform="translate(0.000000,9.360930)" id="shape36"><text xml:space="preserve" style="fill:#191919;font-family:Times New Roman;font-size:7.50pt"><tspan y="11.7" x="11.4">1</tspan></text></g><g transform="translate(0.000000,37.000000)" id="shape37"><text xml:space="preserve" style="fill:#191919;font-family:Times New Roman;font-size:7.50pt"><tspan y="17.2" x="11.4">0</tspan></text></g></g><g transform="translate(664.000000,961.221000)" id="shape38"><path stroke-width="1" stroke="#191919" d="M.0,.0L116.0,-0.0" fill="none"/><path stroke-width="1" stroke="#191919" d="M116.0,-3.0L122.0,-0.0L116.0,3.0L116.0,-3.0" fill="#191919" stroke-linecap="round"/></g><g transform="translate(814.000000,977.221000)" id="shape39"><path stroke-width="1" stroke="#191919" d="M.0,.0L49.0,.0" fill="none"/><path stroke-width="1" stroke="#191919" d="M49.0,-3.0L55.0,.0L49.0,3.0L49.0,-3.0" fill="#191919" stroke-linecap="round"/></g><g transform="translate(515.000000,924.221000)" id="shape40"><text xml:space="preserve" style="fill:#191919;font-family:Times New Roman;font-size:10.00pt"><tspan y="23.7" x="4.9">index(M-3 ... 0)</tspan></text></g><path transform="matrix(-0.470588,0.882353,-0.882353,-0.470588,552.000000,955.000000)" stroke-width="1" id="shape41" stroke="#303030" d="M.0,-0.0L17.0,-0.0" fill="none"/><g transform="translate(667.000750,922.000000)" id="shape42"><text xml:space="preserve" style="fill:#191919;font-family:Times New Roman;font-size:10.00pt"><tspan y="23.7" x="14.7">lut_val(P-1 ... 0)</tspan></text></g><path transform="translate(682.489100,961.220986)" stroke-width="1" id="shape43" stroke="#303030" d="M.0,.0L.0,34.7L103.5,34.7" fill="none"/><g transform="translate(711.000000,996.182000)" id="shape44"><path stroke-width="1" stroke="#191919" d="M.0,.0L69.0,-0.0" fill="none"/><path stroke-width="1" stroke="#191919" d="M69.0,-3.0L75.0,-0.0L69.0,3.0L69.0,-3.0" fill="#191919" stroke-linecap="round"/></g><g transform="translate(683.774000,960.221000)" id="shape45"><text xml:space="preserve" style="fill:#191919;font-family:Times New Roman;font-size:10.00pt"><tspan y="23.7" x="6.6">lut_val(P-1 ... 0)</tspan></text></g><path transform="matrix(-0.470588,0.882353,-0.882353,-0.470588,734.000000,989.000000)" stroke-width="1" id="shape46" stroke="#303030" d="M.0,-0.0L17.0,-0.0" fill="none"/><path transform="matrix(-0.470588,0.882353,-0.882353,-0.470588,729.000000,954.000000)" stroke-width="1" id="shape47" stroke="#303030" d="M.0,-0.0L17.0,-0.0" fill="none"/><g transform="translate(857.000000,959.500000)" id="shape48"><text xml:space="preserve" style="fill:#191919;font-family:Times New Roman;font-size:12.00pt"><tspan y="20.8" x="17.1">SINE_OUT(P-1 ... 0)</tspan></text></g><path transform="matrix(-0.470588,0.882353,-0.882353,-0.470588,842.000000,970.000000)" stroke-width="1" id="shape49" stroke="#303030" d="M.0,-0.0L17.0,-0.0" fill="none"/><path transform="translate(222.771128,945.000428)" stroke-width="1" id="shape50" stroke="#303030" d="M.0,.0L.0,160.6L577.2,160.6L577.2,57.4" fill="none"/><path transform="matrix(-0.470588,0.882353,-0.882353,-0.470588,517.000000,1099.000000)" stroke-width="1" id="shape51" stroke="#303030" d="M.0,-0.0L17.0,-0.0" fill="none"/><g transform="translate(442.999500,1080.000000)" id="shape52"><text xml:space="preserve" style="fill:#191919;font-family:Times New Roman;font-size:10.00pt"><tspan y="15.7" x="30.0">ADDR(M-1)</tspan></text></g><g transform="translate(771.079250,970.500000)" id="shape53"><text xml:space="preserve" style="fill:#191919;font-family:Times New Roman;font-size:16.00pt;font-weight:bold"><tspan y="22.7" x="6.0">-</tspan></text></g><g transform="translate(800.000000,1036.443000)" id="shape54"><path stroke-width="1" stroke="#191919" d="M.0,.0L.0,-28.0" fill="none"/><path stroke-width="1" stroke="#191919" d="M-3.0,-28.0L.0,-34.0L3.0,-28.0L-3.0,-28.0" fill="#191919" stroke-linecap="round"/></g><path transform="translate(212.355020,897.180730)" stroke-width="2" id="shape55" stroke="#101843" d="M618.6,231.8L618.6,.0L.0,.0L.0,231.8L618.6,231.8z" stroke-dasharray="11,5" fill="none"/><g transform="translate(458.177510,857.500000)" id="shape56"><text xml:space="preserve" style="fill:#191919;font-family:Times New Roman;font-size:14.00pt;font-weight:bold"><tspan y="24.9" x="39.1">SINE</tspan></text></g><g transform="translate(48.733000,916.221000)" id="shape57"><text xml:space="preserve" style="fill:#191919;font-family:Times New Roman;font-size:12.00pt"><tspan y="32.3" x="17.8">ADDR(M-1 ... 0)</tspan></text></g><path transform="translate(227.202499,897.180730)" stroke-width="1" id="shape58" stroke="#191919" d="M.0,.0L.0,.0" fill="none"/></g></svg>