<svg xmlns:xlink="http://www.w3.org/1999/xlink" height="275" width="987" xmlns="http://www.w3.org/2000/svg" viewBox="0 0 987 275"><defs/><g transform="translate(-184.41,-198.00)"><g transform="translate(282.000000,293.000000)" id="shape1"><path fill="none" d="M.0,.0L22.0,.0" stroke="#191919" stroke-width="1"/><path fill="#191919" stroke-linecap="round" d="M22.0,-3.0L28.0,.0L22.0,3.0L22.0,-3.0" stroke-width="1" stroke="#191919"/></g><g transform="translate(310.000000,279.000000)" id="group2"><path fill="#ffffff" fill-rule="nonzero" id="shape3" d="M.0,14.0C.0,6.3,6.3,.0,14.0,.0C21.7,.0,28.0,6.3,28.0,14.0C28.0,21.7,21.7,28.0,14.0,28.0C6.3,28.0,.0,21.7,.0,14.0z" stroke="#0d0d0d" stroke-width="1"/><path fill="none" transform="translate(5.166000,5.166000)" id="shape4" d="M8.8,.0L8.8,17.7M.0,8.8L17.7,8.8" stroke="#000000" stroke-width="1"/></g><g transform="translate(368.000000,273.000000)" id="group5"><g id="shape6"><path fill="#ffffff" fill-rule="nonzero" d="M35.5,38.0L35.5,.0L.0,.0L.0,38.0L35.5,38.0z" stroke="#101843" stroke-width="1"/><text style="fill:#191919;font-family:Times New Roman;font-size:14.00pt;font-weight:bold" xml:space="preserve"><tspan x="13.6" y="25.2">z</tspan></text></g><g transform="translate(7.133400,0.000000)" id="shape7"><text style="fill:#191919;font-family:Times New Roman;font-size:10.00pt" xml:space="preserve"><tspan x="16.5" y="18.3">-1</tspan></text></g></g><g transform="translate(524.000000,278.000000)" id="group8"><path fill="#ffffff" fill-rule="nonzero" id="shape9" d="M.0,14.0C.0,6.3,6.3,.0,14.0,.0C21.7,.0,28.0,6.3,28.0,14.0C28.0,21.7,21.7,28.0,14.0,28.0C6.3,28.0,.0,21.7,.0,14.0z" stroke="#0d0d0d" stroke-width="1"/><path fill="none" transform="translate(5.166000,5.166000)" id="shape10" d="M8.8,.0L8.8,17.7M.0,8.8L17.7,8.8" stroke="#000000" stroke-width="1"/></g><g transform="translate(324.000000,340.000000)" id="shape11"><path fill="none" d="M.0,.0L.0,-27.0" stroke="#191919" stroke-width="1"/><path fill="#191919" stroke-linecap="round" d="M-3.0,-27.0L.0,-33.0L3.0,-27.0L-3.0,-27.0" stroke-width="1" stroke="#191919"/></g><g transform="translate(332.000000,242.999990)" id="shape12"><text style="fill:#191919;font-family:Times New Roman;font-size:7.50pt" xml:space="preserve"><tspan x="8.9" y="12.6">PHASE_OUT &lt;= phase_acc(N-1 ... N-</tspan><tspan x="83.7" y="25.3">M)</tspan></text></g><g transform="translate(336.412300,316.999990)" id="shape13"><text style="fill:#191919;font-family:Times New Roman;font-size:7.50pt" xml:space="preserve"><tspan x="12.2" y="12.6">phase_acc(N-1 ... 0)</tspan></text></g><g transform="translate(184.413500,270.000000)" id="shape14"><text style="fill:#191919;font-family:Times New Roman;font-size:7.50pt" xml:space="preserve"><tspan x="14.0" y="23.6">FTW_IN(N-1 ... 0)</tspan></text></g><path fill="none" transform="matrix(-1.000000,0.000000,0.000000,1.000000,538.000000,340.066300)" id="shape15" d="M.0,.0L.0,45.9L255.0,45.9" stroke="#303030" stroke-width="1"/><g transform="translate(184.413300,363.000000)" id="shape16"><text style="fill:#191919;font-family:Times New Roman;font-size:7.50pt" xml:space="preserve"><tspan x="12.7" y="23.6">POW_IN(M-1 ... 0)</tspan></text></g><g transform="translate(538.000000,348.000000)" id="shape17"><path fill="none" d="M.0,.0L.0,-36.0" stroke="#191919" stroke-width="1"/><path fill="#191919" stroke-linecap="round" d="M-3.0,-36.0L.0,-42.0L3.0,-36.0L-3.0,-36.0" stroke-width="1" stroke="#191919"/></g><path fill="none" transform="translate(325.000000,340.000000)" id="shape18" d="M-0.0,-0.0L37.0,-0.0" stroke="#303030" stroke-width="1"/><path fill="none" transform="matrix(-1.000000,0.000000,0.000000,1.000000,440.288200,292.000000)" id="shape19" d="M.0,.0L.0,48.0L85.3,48.0" stroke="#303030" stroke-width="1"/><path fill="none" transform="matrix(-0.470581,0.882357,-0.882357,-0.470581,478.999936,284.999966)" id="shape20" d="M.0,-0.0L17.0,-0.0" stroke="#303030" stroke-width="1"/><path fill="none" transform="matrix(-0.470581,0.882357,-0.882357,-0.470581,591.999936,286.999966)" id="shape21" d="M.0,-0.0L17.0,-0.0" stroke="#303030" stroke-width="1"/><g transform="translate(551.935000,293.362000)" id="shape22"><path fill="none" d="M.0,.0L235.1,-0.0" stroke="#191919" stroke-width="1"/><path fill="#191919" stroke-linecap="round" d="M235.1,-3.0L241.1,-0.0L235.1,3.0L235.1,-3.0" stroke-width="1" stroke="#191919"/></g><g transform="translate(708.000000,314.443000)" id="group23"><path fill="#ffffff" fill-rule="nonzero" id="shape24" d="M.0,14.0C.0,6.3,6.3,.0,14.0,.0C21.7,.0,28.0,6.3,28.0,14.0C28.0,21.7,21.7,28.0,14.0,28.0C6.3,28.0,.0,21.7,.0,14.0z" stroke="#0d0d0d" stroke-width="1"/><path fill="none" transform="translate(5.166000,5.166000)" id="shape25" d="M8.8,.0L8.8,17.7M.0,8.8L17.7,8.8" stroke="#000000" stroke-width="1"/></g><g transform="translate(786.000000,275.999600)" id="group26"><path fill="#ffffff" fill-rule="nonzero" transform="matrix(0.000000,1.000000,-1.000000,0.000000,35.000000,0.000000)" id="shape27" d="M16.0,.0L50.4,.0L66.4,28.0L.0,28.0L16.0,.0z" stroke="#101843" stroke-width="1"/><g transform="translate(0.000000,9.360930)" id="shape28"><text style="fill:#191919;font-family:Times New Roman;font-size:7.50pt" xml:space="preserve"><tspan x="11.3" y="12.2">1</tspan></text></g><g transform="translate(0.000000,37.000000)" id="shape29"><text style="fill:#191919;font-family:Times New Roman;font-size:7.50pt" xml:space="preserve"><tspan x="11.3" y="17.7">0</tspan></text></g></g><g transform="translate(702.538900,240.000000)" id="shape30"><text style="fill:#191919;font-family:Times New Roman;font-size:7.50pt" xml:space="preserve"><tspan x="5.4" y="23.6">index_in &lt;= phase_with_offset(M-3 ... 0)</tspan></text></g><g transform="translate(338.000000,293.000000)" id="shape31"><path fill="none" d="M.0,.0L25.0,.0" stroke="#191919" stroke-width="1"/><path fill="#191919" stroke-linecap="round" d="M25.0,-3.0L31.0,.0L25.0,3.0L25.0,-3.0" stroke-width="1" stroke="#191919"/></g><g transform="translate(403.467000,292.000000)" id="shape32"><path fill="none" d="M.0,.0L114.5,.0" stroke="#191919" stroke-width="1"/><path fill="#191919" stroke-linecap="round" d="M114.5,-3.0L120.5,.0L114.5,3.0L114.5,-3.0" stroke-width="1" stroke="#191919"/></g><path fill="none" transform="matrix(-0.470581,0.882357,-0.882357,-0.470581,723.999936,286.999966)" id="shape33" d="M.0,-0.0L17.0,-0.0" stroke="#303030" stroke-width="1"/><path fill="none" transform="translate(652.244200,293.361400)" id="shape34" d="M.0,.0L.0,35.1L55.8,35.1" stroke="#303030" stroke-width="1"/><g transform="translate(694.078250,304.443000)" id="shape35"><text style="fill:#191919;font-family:Times New Roman;font-size:14.50pt" xml:space="preserve"><tspan x="6.3" y="22.3">-</tspan></text></g><g transform="translate(664.000000,328.443000)" id="shape36"><path fill="none" d="M.0,.0L38.0,.0" stroke="#191919" stroke-width="1"/><path fill="#191919" stroke-linecap="round" d="M38.0,-3.0L44.0,.0L38.0,3.0L38.0,-3.0" stroke-width="1" stroke="#191919"/></g><g transform="translate(697.952000,270.000000)" id="shape37"><text style="fill:#191919;font-family:Times New Roman;font-size:7.50pt" xml:space="preserve"><tspan x="15.4" y="15.6">index_in</tspan></text></g><g transform="translate(648.461000,303.000000)" id="shape38"><text style="fill:#191919;font-family:Times New Roman;font-size:7.50pt" xml:space="preserve"><tspan x="15.4" y="15.6">index_in</tspan></text></g><path fill="none" transform="matrix(-0.470581,0.882357,-0.882357,-0.470581,680.999936,321.999966)" id="shape39" d="M.0,-0.0L17.0,-0.0" stroke="#303030" stroke-width="1"/><g transform="translate(691.078600,352.000000)" id="group40"><path fill="#ffffff" fill-rule="nonzero" transform="translate(11.873900,6.000000)" id="shape41" d="M40.0,32.0L40.0,.0L.0,.0L.0,32.0L40.0,32.0z" stroke="#101843" stroke-width="1"/><g id="group42"><g transform="translate(10.066600,0.000000)" id="shape43"><text style="fill:#191919;font-family:Times New Roman;font-size:7.00pt" xml:space="preserve"><tspan x="14.2" y="16.7">M-2</tspan></text></g><g transform="translate(21.976100,10.000000)" id="shape44"><text style="fill:#191919;font-family:Times New Roman;font-size:10.00pt;font-weight:bold" xml:space="preserve"><tspan x="16.0" y="19.2">-1</tspan></text></g><g transform="translate(-0.000100,10.000000)" id="shape45"><text style="fill:#191919;font-family:Times New Roman;font-size:10.00pt;font-weight:bold" xml:space="preserve"><tspan x="18.3" y="19.2">2</tspan></text></g></g></g><g transform="translate(721.545000,357.000000)" id="shape46"><path fill="none" d="M.0,.0L.0,-9.0" stroke="#191919" stroke-width="1"/><path fill="#191919" stroke-linecap="round" d="M-3.0,-9.0L.0,-15.0L3.0,-9.0L-3.0,-9.0" stroke-width="1" stroke="#191919"/></g><g transform="translate(736.000000,328.443000)" id="shape47"><path fill="none" d="M.0,.0L50.0,.0" stroke="#191919" stroke-width="1"/><path fill="#191919" stroke-linecap="round" d="M50.0,-3.0L56.0,.0L50.0,3.0L50.0,-3.0" stroke-width="1" stroke="#191919"/></g><g transform="translate(708.000500,333.000000)" id="shape48"><text style="fill:#191919;font-family:Times New Roman;font-size:7.50pt" xml:space="preserve"><tspan x="18.6" y="17.1">index_mirror(M-3 ... 0)</tspan></text></g><path fill="none" transform="matrix(-0.470581,0.882357,-0.882357,-0.470581,764.999936,321.999966)" id="shape49" d="M.0,-0.0L17.0,-0.0" stroke="#303030" stroke-width="1"/><path fill="none" transform="translate(625.314500,293.361400)" id="shape50" d="M.0,.0L.0,129.6L181.7,129.6L181.7,41.1" stroke="#303030" stroke-width="1"/><g transform="translate(807.000000,361.443000)" id="shape51"><path fill="none" d="M.0,.0L.0,-21.0" stroke="#191919" stroke-width="1"/><path fill="#191919" stroke-linecap="round" d="M-3.0,-21.0L.0,-27.0L3.0,-21.0L-3.0,-21.0" stroke-width="1" stroke="#191919"/></g><g transform="translate(664.011500,397.000000)" id="shape52"><text style="fill:#191919;font-family:Times New Roman;font-size:7.50pt" xml:space="preserve"><tspan x="12.9" y="15.6">phase_with_offset(M-2)</tspan></text></g><path fill="none" transform="matrix(-0.470581,0.882357,-0.882357,-0.470581,726.999936,414.999966)" id="shape53" d="M.0,-0.0L17.0,-0.0" stroke="#303030" stroke-width="1"/><g transform="translate(887.000000,282.221000)" id="shape54"><path fill="#ffffff" fill-rule="nonzero" d="M57.0,54.0L57.0,.0L.0,.0L.0,54.0L57.0,54.0z" stroke="#101843" stroke-width="1"/><text style="fill:#191919;font-family:Times New Roman;font-size:10.00pt;font-weight:bold" xml:space="preserve"><tspan x="19.4" y="16.2">1/4</tspan><tspan x="15.8" y="32.5">Sine</tspan><tspan x="14.5" y="48.8">LUT</tspan></text></g><g transform="translate(821.000000,309.221000)" id="shape55"><path fill="none" d="M.0,.0L59.0,.0" stroke="#191919" stroke-width="1"/><path fill="#191919" stroke-linecap="round" d="M59.0,-3.0L65.0,.0L59.0,3.0L59.0,-3.0" stroke-width="1" stroke="#191919"/></g><g transform="translate(1015.000000,291.999600)" id="group56"><path fill="#ffffff" fill-rule="nonzero" transform="matrix(0.000000,1.000000,-1.000000,0.000000,35.000000,0.000000)" id="shape57" d="M16.0,.0L50.4,.0L66.4,28.0L.0,28.0L16.0,.0z" stroke="#101843" stroke-width="1"/><g transform="translate(0.000000,9.360930)" id="shape58"><text style="fill:#191919;font-family:Times New Roman;font-size:7.50pt" xml:space="preserve"><tspan x="11.3" y="12.2">1</tspan></text></g><g transform="translate(0.000000,37.000000)" id="shape59"><text style="fill:#191919;font-family:Times New Roman;font-size:7.50pt" xml:space="preserve"><tspan x="11.3" y="17.7">0</tspan></text></g></g><g transform="translate(944.000000,309.221000)" id="shape60"><path fill="none" d="M.0,.0L73.0,.0" stroke="#191919" stroke-width="1"/><path fill="#191919" stroke-linecap="round" d="M73.0,-3.0L79.0,.0L73.0,3.0L73.0,-3.0" stroke-width="1" stroke="#191919"/></g><g transform="translate(1050.000000,325.221000)" id="shape61"><path fill="none" d="M.0,.0L93.0,.0" stroke="#191919" stroke-width="1"/><path fill="#191919" stroke-linecap="round" d="M93.0,-3.0L99.0,.0L93.0,3.0L93.0,-3.0" stroke-width="1" stroke="#191919"/></g><g transform="translate(812.000000,279.221000)" id="shape62"><text style="fill:#191919;font-family:Times New Roman;font-size:7.50pt" xml:space="preserve"><tspan x="11.2" y="23.6">addr(M-3 ... 0)</tspan></text></g><path fill="none" transform="matrix(-0.470581,0.882357,-0.882357,-0.470581,855.999936,302.999966)" id="shape63" d="M.0,-0.0L17.0,-0.0" stroke="#303030" stroke-width="1"/><g transform="translate(934.000000,275.000000)" id="shape64"><text style="fill:#191919;font-family:Times New Roman;font-size:7.50pt" xml:space="preserve"><tspan x="13.0" y="23.6">sine(P-1 ... 0)</tspan></text></g><path fill="none" transform="translate(959.747500,309.221600)" id="shape65" d="M.0,.0L.0,34.7L62.3,34.7" stroke="#303030" stroke-width="1"/><g transform="translate(991.000000,344.182000)" id="shape66"><path fill="none" d="M.0,.0L25.0,-0.0" stroke="#191919" stroke-width="1"/><path fill="#191919" stroke-linecap="round" d="M25.0,-3.0L31.0,-0.0L25.0,3.0L25.0,-3.0" stroke-width="1" stroke="#191919"/></g><g transform="translate(948.774000,308.221000)" id="shape67"><text style="fill:#191919;font-family:Times New Roman;font-size:7.50pt" xml:space="preserve"><tspan x="13.0" y="23.6">sine(P-1 ... 0)</tspan></text></g><path fill="none" transform="matrix(-0.470581,0.882357,-0.882357,-0.470581,991.999936,335.999966)" id="shape68" d="M.0,-0.0L17.0,-0.0" stroke="#303030" stroke-width="1"/><path fill="none" transform="matrix(-0.470581,0.882357,-0.882357,-0.470581,990.999936,301.999966)" id="shape69" d="M.0,-0.0L17.0,-0.0" stroke="#303030" stroke-width="1"/><g transform="translate(1056.520000,288.443000)" id="shape70"><text style="fill:#191919;font-family:Times New Roman;font-size:7.50pt" xml:space="preserve"><tspan x="11.7" y="23.6">SINE_OUT(P-1 ... 0)</tspan></text></g><path fill="none" transform="matrix(-0.470581,0.882357,-0.882357,-0.470581,1106.999936,317.999966)" id="shape71" d="M.0,-0.0L17.0,-0.0" stroke="#303030" stroke-width="1"/><path fill="none" transform="translate(599.974000,293.361400)" id="shape72" d="M.0,.0L.0,160.6L436.0,160.6L436.0,57.1" stroke="#303030" stroke-width="1"/><path fill="none" transform="matrix(-0.470581,0.882357,-0.882357,-0.470581,820.999936,446.999966)" id="shape73" d="M.0,-0.0L17.0,-0.0" stroke="#303030" stroke-width="1"/><g transform="translate(758.999500,428.000000)" id="shape74"><text style="fill:#191919;font-family:Times New Roman;font-size:7.50pt" xml:space="preserve"><tspan x="12.9" y="15.6">phase_with_offset(M-1)</tspan></text></g><g transform="translate(1007.079250,319.500000)" id="shape75"><text style="fill:#191919;font-family:Times New Roman;font-size:14.50pt" xml:space="preserve"><tspan x="6.3" y="22.3">-</tspan></text></g><g transform="translate(1036.000000,384.443000)" id="shape76"><path fill="none" d="M.0,.0L.0,-28.0" stroke="#191919" stroke-width="1"/><path fill="#191919" stroke-linecap="round" d="M-3.0,-28.0L.0,-34.0L3.0,-28.0L-3.0,-28.0" stroke-width="1" stroke="#191919"/></g><path fill="none" transform="matrix(-0.470581,0.882357,-0.882357,-0.470581,392.999936,332.999966)" id="shape77" d="M.0,-0.0L17.0,-0.0" stroke="#303030" stroke-width="1"/><g transform="translate(444.000000,266.999990)" id="shape78"><text style="fill:#191919;font-family:Times New Roman;font-size:7.50pt" xml:space="preserve"><tspan x="4.1" y="12.6">PHASE_OUT</tspan></text></g><g transform="translate(550.000000,266.221700)" id="shape79"><text style="fill:#191919;font-family:Times New Roman;font-size:7.50pt" xml:space="preserve"><tspan x="12.9" y="17.6">phase_with_offset(M-1 ... 0)</tspan></text></g><path fill="none" transform="translate(295.910000,231.999600)" id="shape80" d="M216.1,126.4L216.1,.0L.0,.0L.0,126.4L216.1,126.4z" stroke="#101843" stroke-width="2" stroke-dasharray="11,5"/><g transform="translate(343.955000,198.000000)" id="shape81"><text style="fill:#191919;font-family:Times New Roman;font-size:14.00pt;font-weight:bold" xml:space="preserve"><tspan x="39.2" y="25.7">NCO</tspan></text></g><path fill="none" transform="translate(560.956000,235.000000)" id="shape82" d="M501.0,237.0L501.0,.0L.0,.0L.0,237.0L501.0,237.0z" stroke="#101843" stroke-width="2" stroke-dasharray="11,5"/><g transform="translate(759.000000,198.000000)" id="shape83"><text style="fill:#191919;font-family:Times New Roman;font-size:14.00pt;font-weight:bold" xml:space="preserve"><tspan x="38.3" y="25.7">SINE</tspan></text></g><path fill="none" transform="matrix(-0.470581,0.882357,-0.882357,-0.470581,294.999936,378.999966)" id="shape84" d="M.0,-0.0L17.0,-0.0" stroke="#303030" stroke-width="1"/><path fill="none" transform="matrix(-0.470581,0.882357,-0.882357,-0.470581,291.999936,285.999966)" id="shape85" d="M.0,-0.0L17.0,-0.0" stroke="#303030" stroke-width="1"/></g></svg>